g BoosterPack
v -2.24607277 4.0723424 -0.0250016656
v -1.21238875 4.0723424 -9.21774415E-07
v -2.27717948 4.0723424 -4.28818595E-07
v -1.21238875 4.07234192 -0.0250016544
v -3.87086196E-14 4.07234287 -1.41473038E-06
v -3.88831897E-14 4.0723424 -0.025001647
v 1.26129973 4.0723424 -0.0250016563
v 1.26129973 4.07234287 -9.2472925E-07
v 2.24607253 4.0723424 -0.0250016656
v 2.27717924 4.0723424 -4.28818595E-07
v 1.23870051 -4.0723424 0.0497165509
v 1.26129937 -4.0723424 0.0247876309
v 3.8708623E-14 -4.07234287 1.99875376E-06
v -0.0225988757 -4.0723424 0.0250025727
v -1.21238875 -4.0723424 1.21378616E-06
v -1.21238875 -4.07234192 0.0250020418
v -2.24607229 -4.0723424 0.0250015222
v -2.27717948 -4.0723424 4.28818595E-07
v -2.24607301 4.0723424 0.0249980707
v -2.27717948 4.0723424 -4.28818595E-07
v -1.21238875 4.0723424 -9.21774415E-07
v -1.21238875 4.07234192 0.0249986127
v -0.0225988757 4.0723424 0.0249991585
v -3.87086196E-14 4.07234287 -1.41473038E-06
v 1.26129937 4.0723424 0.0247849505
v 1.23870051 4.0723424 0.0497138724
v 2.24607253 4.0723424 0.0249982178
v 1.26129937 3.48719287 0.0245015789
v 1.26129937 4.0723424 0.0247849505
v 2.25103951 3.48719263 0.0238878038
v 2.27717924 4.0723424 -4.28818595E-07
v 2.128582 3.20526671 0.223857909
v 1.26129937 3.20526671 0.222408116
v 2.09405112 3.01693821 0.274450898
v 1.26129937 3.01693845 0.274687529
v 1.26129937 1.04745567E-07 0.274732113
v 2.20605683 3.20526671 0.18971777
v 2.27717924 3.48719263 -3.67202176E-07
v 2.25103951 3.48719263 -0.0238907263
v 2.24607253 4.0723424 -0.0250016656
v 1.26129973 3.48719263 -0.0238671135
v 1.26129973 4.0723424 -0.0250016563
v -3.33131112E-14 3.48719263 -0.0238435008
v -3.88831897E-14 4.0723424 -0.025001647
v -1.21238875 3.48719239 -0.0238671098
v -1.21238875 4.07234192 -0.0250016544
v -2.24607277 4.0723424 -0.0250016656
v -2.25103974 3.48719263 -0.0238907263
v -2.27717948 4.0723424 -4.28818595E-07
v 2.24947619 3.20526671 -1.34631841E-06
v 2.20605683 3.20526671 -0.189720437
v 2.128582 3.20526671 -0.223860607
v 2.09405112 3.01693773 -0.274453461
v 1.26129973 3.20526671 -0.22211875
v 2.18767095 3.01693821 0.235534951
v 2.18767095 3.01693821 -0.235537484
v 2.23082328 3.01693821 -1.26785869E-06
v 2.2308507 2.09696593E-09 3.49770035E-09
v 2.18834829 1.21018957E-07 0.234767199
v 2.18834829 -1.13566657E-07 -0.234767199
v 2.09436631 1.37703367E-07 0.274566233
v 2.09405112 -3.01693821 0.274453431
v 1.26129937 -3.01693845 0.274689525
v 1.26129937 -3.20526671 0.222410232
v 2.18767095 -3.01693821 0.235537484
v 2.128582 -3.20526671 0.223860621
v 1.26129937 -3.48719287 0.0245038625
v 2.20605683 -3.20526671 0.189720452
v 2.25103951 -3.48719263 0.02389073
v 2.27717924 -3.48719263 3.67202176E-07
v 2.24607253 -4.0723424 0.0250016712
v 1.26129937 -4.0723424 0.0247876309
v 2.27717924 -4.0723424 4.28818595E-07
v 2.24607253 -4.0723424 -0.0249982141
v 2.24947619 -3.20526671 1.35050152E-06
v 2.23082328 -3.01693821 1.26532143E-06
v 2.18767095 -3.01693821 -0.235534936
v 2.09405112 -3.01693845 -0.274450898
v 2.20605683 -3.20526671 -0.18971777
v 2.25103951 -3.48719263 -0.0238878168
v 1.26129973 -3.48719263 -0.0238642041
v 1.26129973 -4.0723424 -0.0249982234
v 3.85340394E-14 -4.0723424 -0.0249982327
v 2.128582 -3.20526671 -0.223857939
v 3.29801358E-14 -3.48719263 -0.0238405913
v -1.21238875 -4.07234192 -0.0249982234
v 1.26129973 -3.20526671 -0.222116083
v 2.09436631 -1.30251081E-07 -0.274566233
v 1.26099992 -1.81522609E-07 -0.274783105
v 1.26129973 -3.01693845 -0.274607569
v 2.89279742E-14 -3.20526671 -0.220374241
v -1.21238875 -3.48719239 -0.0238642041
v -2.24607253 -4.0723424 -0.0249982141
v 1.26099992 3.01693773 -0.274610102
v 2.67580639E-14 -3.01693845 -0.27476421
v -1.21238875 -3.20526624 -0.222116068
v -1.92031327E-15 -1.30432923E-07 -0.274999976
v -1.21238887 -3.01693845 -0.274607569
v -2.09405112 -3.01693845 -0.274450898
v -3.20057227E-14 3.20526671 -0.220376909
v -2.128582 -3.20526671 -0.223857939
v -3.05954128E-14 3.01693773 -0.274766773
v -1.21254659 -1.30342031E-07 -0.274783105
v -1.21238875 3.20526624 -0.222118735
v -1.21238887 3.01693773 -0.274610102
v -2.09405112 3.01693773 -0.274453461
v -2.128582 3.20526671 -0.223860607
v -2.20605683 3.20526671 -0.189720437
v -2.09436631 -1.30251124E-07 -0.274566233
v -2.18834829 -1.13566699E-07 -0.234767199
v -2.27717948 3.48719263 -3.67202176E-07
v -2.18767095 3.01693821 -0.235537484
v -2.2308507 2.09690687E-09 -6.87459902E-08
v -2.18767095 -3.01693821 -0.235534936
v -2.24947619 3.20526671 -1.42019053E-06
v -2.25103974 3.48719263 0.0238876734
v -2.24607301 4.0723424 0.0249980707
v -2.20605683 -3.20526671 -0.18971777
v -2.23082328 3.01693821 -1.33056335E-06
v -2.20605683 3.20526671 0.18971765
v -2.18767095 3.01693821 0.235534832
v -2.09405112 3.01693821 0.274450839
v -1.21238875 3.48719239 0.023864584
v -1.21238875 4.07234192 0.0249986127
v -2.128582 3.20526671 0.22385782
v -0.0225988757 3.48719263 0.0238414966
v -0.0225988757 4.0723424 0.0249991585
v -1.21238875 3.20526624 0.22211647
v 1.23870051 3.48719287 0.0485561602
v 1.23870051 4.0723424 0.0497138724
v -0.0225988757 3.20526671 0.22037515
v 1.26129937 3.48719287 0.0245015789
v 1.26129937 4.0723424 0.0247849505
v 1.26129937 3.20526671 0.222408116
v 1.23870051 3.20526671 0.245089799
v 1.26129937 3.01693845 0.274687529
v -1.22368836 3.01693821 0.274607986
v 1.23870051 3.01693845 0.299479753
v 1.26129937 1.04745567E-07 0.274732113
v -0.0225988757 3.01693821 0.274765134
v 1.23870051 1.12211765E-07 0.299715251
v 1.26129937 -3.01693845 0.274689525
v -0.0225988757 1.37885266E-07 0.2750009
v 1.23870051 -3.01693845 0.299481779
v 1.26129937 -3.20526671 0.222410232
v -1.22384608 1.37794274E-07 0.274783522
v -0.0225988757 -3.01693821 0.274767697
v 1.23870051 -3.20526671 0.245091885
v 1.26129937 -3.48719287 0.0245038625
v -0.0225988757 -3.20526671 0.220377862
v 1.23870051 -3.48719287 0.0485584587
v 1.26129937 -4.0723424 0.0247876309
v 1.23870051 -4.0723424 0.0497165509
v -0.0225988757 -4.0723424 0.0250025727
v -0.0225988757 -3.48719263 0.0238444246
v -1.22368836 -3.01693821 0.274610549
v -2.09405112 -3.01693821 0.274453372
v -1.21238875 -3.20526624 0.222119167
v -1.21238875 -3.48719239 0.0238675084
v -1.21238875 -4.07234192 0.0250020418
v -2.24607229 -4.0723424 0.0250015222
v -2.128582 -3.20526671 0.223860532
v -2.25103927 -3.48719263 0.0238906015
v -2.27717948 -3.48719263 3.67202176E-07
v -2.27717948 -4.0723424 4.28818595E-07
v -2.20605683 -3.20526671 0.189720348
v -2.09436631 1.37703296E-07 0.274566174
v -2.18834829 1.21018886E-07 0.234767109
v -2.18767095 -3.01693821 0.235537365
v -2.24947619 -3.20526671 1.2766294E-06
v -2.23082328 -3.01693821 1.202617E-06
v -2.25103951 -3.48719263 -0.0238878168
v 3.8708623E-14 -4.07234287 1.99875376E-06
v 1.26129937 -4.0723424 0.0247876309
v 1.26129973 -4.07234287 1.21083156E-06
v 2.27717924 -4.0723424 4.28818595E-07
v 2.24607253 -4.0723424 0.0250016712
v 2.27717924 4.0723424 -4.28818595E-07
v 2.24607253 4.0723424 0.0249982178
v 1.26129937 4.0723424 0.0247849505
v 1.26129973 4.07234287 -9.2472925E-07
v -3.87086196E-14 4.07234287 -1.41473038E-06
v 2.24607253 -4.0723424 -0.0249982141
v 1.26129973 -4.07234287 1.21083156E-06
v 2.27717924 -4.0723424 4.28818595E-07
v 1.26129973 -4.0723424 -0.0249982234
v 3.8708623E-14 -4.07234287 1.99875376E-06
v 3.85340394E-14 -4.0723424 -0.0249982327
v -1.21238875 -4.07234192 -0.0249982234
v -1.21238875 -4.0723424 1.21378616E-06
v -2.24607253 -4.0723424 -0.0249982141
v -2.27717948 -4.0723424 4.28818595E-07
vt 0.677978039 0.958476543
vt 0.595235348 0.961472869
vt 0.680451393 0.959974706
vt 0.595235348 0.958476543
vt 0.499390602 0.961472869
vt 0.499390602 0.958476543
vt 0.399936676 0.958476543
vt 0.399936676 0.961472869
vt 0.320803046 0.958476543
vt 0.318329692 0.959974706
vt 0.960170269 0.0444323421
vt 0.962181211 0.0428405404
vt 0.861512184 0.0409888029
vt 0.859715343 0.0441724062
vt 0.763094783 0.0409888029
vt 0.763459921 0.0441724062
vt 0.682924867 0.0441724062
vt 0.680451393 0.0425806046
vt 0.682924867 0.958476543
vt 0.680451393 0.959974706
vt 0.763069987 0.961472869
vt 0.76344943 0.958476543
vt 0.859715343 0.958476543
vt 0.861512184 0.961472869
vt 0.962181211 0.960112154
vt 0.960170507 0.95861429
vt 0.315856457 0.958476543
vt 0.237575293 0.892500639
vt 0.237530589 0.958476543
vt 0.316251397 0.892500639
vt 0.318329692 0.959974706
vt 0.306514621 0.860671997
vt 0.237353683 0.860671997
vt 0.303768992 0.840305328
vt 0.237548351 0.840305328
vt 0.237556219 0.501722455
vt 0.312674642 0.860671997
vt 0.318329573 0.892500639
vt 0.320408225 0.892500639
vt 0.320803046 0.958476543
vt 0.399936676 0.892500639
vt 0.399936676 0.958476543
vt 0.499390602 0.892500639
vt 0.499390602 0.958476543
vt 0.595235348 0.892500639
vt 0.595235348 0.958476543
vt 0.677978039 0.958476543
vt 0.678372979 0.892500639
vt 0.680451393 0.959974706
vt 0.318329692 0.860671997
vt 0.323984623 0.860671997
vt 0.330144882 0.860671997
vt 0.332890391 0.840305328
vt 0.399936676 0.860671997
vt 0.311212897 0.840305328
vt 0.325446725 0.840305328
vt 0.318329692 0.840305328
vt 0.318329692 0.501722455
vt 0.311266661 0.501722455
vt 0.325392842 0.501722455
vt 0.303794265 0.501722455
vt 0.303768992 0.16268158
vt 0.23755312 0.16268158
vt 0.237541914 0.141894221
vt 0.311251879 0.16268158
vt 0.306514621 0.141894221
vt 0.237338305 0.110081315
vt 0.312674642 0.141894221
vt 0.316251397 0.110081315
vt 0.318329573 0.110081315
vt 0.315856457 0.0441724062
vt 0.237543583 0.0441724062
vt 0.318329692 0.0425806046
vt 0.320803046 0.0441724062
vt 0.318329692 0.141894221
vt 0.318329692 0.16268158
vt 0.325407505 0.16268158
vt 0.332890391 0.16268158
vt 0.323984623 0.141894221
vt 0.320408225 0.110081315
vt 0.399936676 0.110081315
vt 0.399936676 0.0441724062
vt 0.499390602 0.0441724062
vt 0.330144882 0.141894221
vt 0.499390602 0.110081315
vt 0.595235348 0.0441724062
vt 0.399936676 0.141894221
vt 0.332865477 0.501722455
vt 0.399936676 0.501722455
vt 0.399936676 0.16268158
vt 0.499390602 0.141894221
vt 0.595235348 0.110081315
vt 0.677978039 0.0441724062
vt 0.399936676 0.840305328
vt 0.499390602 0.16268158
vt 0.595235348 0.141894221
vt 0.499390602 0.501722455
vt 0.595235348 0.16268158
vt 0.665890574 0.16268158
vt 0.499390602 0.860671997
vt 0.668636322 0.141894221
vt 0.499390602 0.840305328
vt 0.595235348 0.501722455
vt 0.595235348 0.860671997
vt 0.595235348 0.840305328
vt 0.665890574 0.840305328
vt 0.668636322 0.860671997
vt 0.6745013 0.860671997
vt 0.665915847 0.501722455
vt 0.673388362 0.501722455
vt 0.680451393 0.892500639
vt 0.673334599 0.840305328
vt 0.680451393 0.501722455
vt 0.67337358 0.16268158
vt 0.680451393 0.860671997
vt 0.682529807 0.892500639
vt 0.682924867 0.958476543
vt 0.674796462 0.141894221
vt 0.680451393 0.840305328
vt 0.686401486 0.860671997
vt 0.687568188 0.840305328
vt 0.695012093 0.840305328
vt 0.763275146 0.892500639
vt 0.76344943 0.958476543
vt 0.692266464 0.860671997
vt 0.859715343 0.892500639
vt 0.859715343 0.958476543
vt 0.768216014 0.860671997
vt 0.960170507 0.892791092
vt 0.960170507 0.95861429
vt 0.859715343 0.860671997
vt 0.962394655 0.893080831
vt 0.962181211 0.960112154
vt 0.962394655 0.86144197
vt 0.960170507 0.861056983
vt 0.962404966 0.840305328
vt 0.764217377 0.840305328
vt 0.960189581 0.840305328
vt 0.962383687 0.501721501
vt 0.859715343 0.840305328
vt 0.960170865 0.501722455
vt 0.962378919 0.163137674
vt 0.859715343 0.501722455
vt 0.960170269 0.162909627
vt 0.962394655 0.142000914
vt 0.764202952 0.501722455
vt 0.859696746 0.16268158
vt 0.960170269 0.141947985
vt 0.962394655 0.110361695
vt 0.859715343 0.141894221
vt 0.960170269 0.110222042
vt 0.962181211 0.0428405404
vt 0.960170269 0.0444323421
vt 0.859715343 0.0441724062
vt 0.859715343 0.110081315
vt 0.764209628 0.16268158
vt 0.695012093 0.16268158
vt 0.768220425 0.141894221
vt 0.763277292 0.110081315
vt 0.763459921 0.0441724062
vt 0.682924867 0.0441724062
vt 0.692266464 0.141894221
vt 0.682529807 0.110081315
vt 0.680451393 0.110081315
vt 0.680451393 0.0425806046
vt 0.686106324 0.141894221
vt 0.694987059 0.501722455
vt 0.687514544 0.501722455
vt 0.687529087 0.16268158
vt 0.680451393 0.141894221
vt 0.680451393 0.16268158
vt 0.678372979 0.110081315
vt 0.13726902 0.0409888029
vt 0.237543583 0.0441724062
vt 0.240539789 0.0409888029
vt 0.318329692 0.0425806046
vt 0.315856457 0.0441724062
vt 0.318329692 0.959974706
vt 0.315856457 0.958476543
vt 0.237530589 0.958476543
vt 0.241556048 0.961472869
vt 0.13726902 0.961472869
vt 0.320803046 0.0441724062
vt 0.399936676 0.0409888029
vt 0.318329692 0.0425806046
vt 0.399936676 0.0441724062
vt 0.499390602 0.0409888029
vt 0.499390602 0.0441724062
vt 0.595235348 0.0441724062
vt 0.595235348 0.0409888029
vt 0.677978039 0.0441724062
vt 0.680451393 0.0425806046
vn 1.45426043E-07 1 -6.01280408E-06
vn -0 1 0
vn 1.45426668E-07 1 0
vn -0 1 -9.10979998E-06
vn -0 1 -2.23212533E-06
vn -1.25857284E-07 1 -1.22067959E-05
vn -0 1 -9.20248385E-06
vn -0 1 0
vn 1.52539656E-07 1 -6.19817183E-06
vn 1.52206326E-07 1 0
vn -0 -1 6.11306132E-06
vn -0 -1 8.57543E-06
vn -0 -1 -2.23231882E-06
vn -1.85056692E-07 -1 1.04740138E-05
vn -0 -1 0
vn -0 -1 9.05233082E-06
vn 1.45423726E-07 -1 6.01280999E-06
vn 1.45426682E-07 -1 0
vn 1.45427293E-07 1 6.01327702E-06
vn 1.45426668E-07 1 0
vn -0 1 0
vn -0 1 9.05272282E-06
vn -1.85052997E-07 1 1.0474243E-05
vn -0 1 -2.23212533E-06
vn -0 1 8.57568921E-06
vn -0 1 6.11305768E-06
vn 0.344388604 0.00044115237 0.938827097
vn 0.363850504 0.26965785 0.891570151
vn 0.401301801 -0.00110535172 0.915945172
vn 0.330662966 0.261497289 0.90679723
vn 0.999995112 0.00313281757 2.40730351E-05
vn 0.196231112 0.371099144 0.907622635
vn 0.377993733 0.409539104 0.830300212
vn 0.184454411 0.114761911 0.976117909
vn 0.409461826 0.127431244 0.903383791
vn 0.404929876 3.28278077E-07 0.914347827
vn 0.761556864 0.150702477 0.630333245
vn 0.985408962 0.17020385 1.63280583E-05
vn 0.330565393 0.26144284 -0.90684849
vn 0.344309866 5.06990182E-05 -0.938856125
vn -0.000359639263 0.300769746 -0.953696668
vn -1.06640164E-05 -0.00193891558 -0.999998093
vn 6.12335543E-06 0.299754232 -0.954016387
vn 1.88155781E-07 -0.00195905869 -0.999998093
vn 0.000355476164 0.300768286 -0.953697205
vn 1.05706758E-05 -0.0019389143 -0.999998093
vn -0.344308883 5.06950346E-05 -0.938856423
vn -0.330571651 0.261440784 -0.906846821
vn -0.999995112 0.00313282129 2.41315411E-05
vn 0.99631846 -0.0857290626 -2.81478663E-07
vn 0.761559725 0.150700271 -0.630330145
vn 0.196066469 0.371359229 -0.907551885
vn 0.184395969 0.11492154 -0.97611016
vn -0.000723980716 0.428120941 -0.903721154
vn 0.754524887 0.03947201 0.655083299
vn 0.754524887 0.0394715443 -0.655083358
vn 0.999322653 -0.0368006527 0
vn 1 0 0
vn 0.779622674 2.63159478E-07 0.626249552
vn 0.779622674 -2.65032526E-07 -0.626249552
vn 0.197464019 3.89531834E-07 0.980310142
vn 0.184454203 -0.114761189 0.976118147
vn 0.409461677 -0.127430648 0.903383911
vn 0.377993524 -0.409538746 0.83030051
vn 0.754524887 -0.0394714326 0.655083358
vn 0.196233451 -0.371097922 0.907622635
vn 0.363850296 -0.269657373 0.891570449
vn 0.761559784 -0.150700226 0.630330205
vn 0.330679148 -0.261496395 0.906791568
vn 0.985408962 -0.17020379 -1.64565972E-05
vn 0.344410807 -0.000440608361 0.938818932
vn 0.401301533 0.00110602833 0.915945292
vn 0.999995112 -0.00313282781 -2.41898906E-05
vn 0.344287395 -5.1319952E-05 -0.938864291
vn 0.99631846 0.0857290626 2.91184847E-07
vn 0.999322653 0.0368006602 0
vn 0.754525006 -0.0394718908 -0.655083239
vn 0.184396014 -0.114922494 -0.976110101
vn 0.761556983 -0.150702447 -0.630333126
vn 0.330549181 -0.261443883 -0.906854093
vn -0.000359633937 -0.300770462 -0.953696549
vn -1.06554044E-05 0.00193801906 -0.999998093
vn 1.88989858E-07 0.00195817882 -0.999998093
vn 0.1960641 -0.371360481 -0.907551885
vn 6.12427812E-06 -0.299754918 -0.954016209
vn 1.05619665E-05 0.00193801802 -0.999998093
vn -0.000723928795 -0.428123593 -0.903719842
vn 0.197455615 -4.12412049E-07 -0.980311871
vn 0.000186127611 -4.19271771E-07 -1
vn -0.000285534159 -0.135538623 -0.990772009
vn 1.19998767E-05 -0.429309398 -0.903157473
vn 0.000355470693 -0.300768912 -0.953696966
vn -0.34428519 -5.1310104E-05 -0.938865125
vn -0.000285446557 0.135540023 -0.99077177
vn 4.64425966E-06 -0.137839988 -0.990454495
vn 0.000713722897 -0.428117782 -0.903722584
vn -2.96850544E-06 -4.21734853E-07 -1
vn 0.000280969456 -0.135537773 -0.990772128
vn -0.184406638 -0.114921063 -0.976108253
vn 1.19813085E-05 0.429308653 -0.90315789
vn -0.196085766 -0.371358693 -0.907547832
vn 4.6306659E-06 0.137838989 -0.990454614
vn -0.000182919626 -4.23578427E-07 -1
vn 0.000713724061 0.428116888 -0.903723061
vn 0.00028096966 0.135536641 -0.990772247
vn -0.184406564 0.114919916 -0.976108372
vn -0.19608815 0.371357232 -0.907547951
vn -0.761559546 0.150700152 -0.630330443
vn -0.197449535 -4.1525513E-07 -0.980313122
vn -0.779622734 -2.65066745E-07 -0.626249492
vn -0.985408843 0.170203939 1.64851954E-05
vn -0.754524887 0.0394715518 -0.655083358
vn -1 0 0
vn -0.754524887 -0.0394718908 -0.655083239
vn -0.99631846 -0.0857295915 -3.25156378E-07
vn -0.33055532 0.261441797 0.906852543
vn -0.344286621 5.13117884E-05 0.938864648
vn -0.761556685 -0.150702506 -0.630333424
vn -0.999322653 -0.036800649 0
vn -0.761556745 0.150702313 0.630333364
vn -0.754525006 0.0394720137 0.655083239
vn -0.184405968 0.114914052 0.976109266
vn 0.00035803119 0.300768912 0.953696966
vn 1.01767328E-05 -0.00193803303 0.999998093
vn -0.196084902 0.371353507 0.907550216
vn -0.00917472318 0.298719615 0.954296827
vn -0.00979126897 -0.00196822686 0.999950171
vn 0.000717739458 0.428184628 0.903691053
vn 0.400103629 0.296842128 0.867065012
vn 0.391982824 -0.00154250208 0.919971287
vn -0.00853337068 0.43024832 0.902670205
vn 0.363850504 0.26965785 0.891570151
vn 0.401301801 -0.00110535172 0.915945172
vn 0.377993733 0.409539104 0.830300212
vn 0.351546168 0.392016292 0.850140274
vn 0.409461826 0.127431244 0.903383791
vn 0.000285046292 0.13544254 0.990785122
vn 0.376402259 0.126388416 0.917794824
vn 0.404929876 3.28278077E-07 0.914347827
vn -0.00958429649 0.139107913 0.990230858
vn 0.395833999 3.31497773E-07 0.918322086
vn 0.409461677 -0.127430648 0.903383911
vn -0.00987371244 4.01498937E-07 0.999951243
vn 0.376402527 -0.126387864 0.917794824
vn 0.377993524 -0.409538746 0.83030051
vn -0.00018551691 4.22795551E-07 1
vn -0.00958413258 -0.139107183 0.990230978
vn 0.351546407 -0.392015874 0.850140393
vn 0.363850296 -0.269657373 0.891570449
vn -0.00853315927 -0.430247754 0.902670503
vn 0.400103956 -0.296841532 0.867065132
vn 0.401301533 0.00110602833 0.915945292
vn 0.391983032 0.00154315599 0.919971168
vn -0.00979099609 0.00196902221 0.999950171
vn -0.00917447638 -0.298718989 0.954297066
vn 0.00028504082 -0.135441735 0.990785241
vn -0.184405968 -0.11491324 0.976109266
vn 0.000717737887 -0.428184003 0.903691351
vn 0.000358036952 -0.300768256 0.953697205
vn 1.0185473E-05 0.00193889695 0.999998093
vn -0.344304144 -5.06943034E-05 0.938858092
vn -0.196087182 -0.371352345 0.907550097
vn -0.330568403 -0.261441022 0.906847894
vn -0.985408604 -0.170205429 -1.38359037E-05
vn -0.999995112 -0.00313281617 -2.01584626E-05
vn -0.761559129 -0.150700733 0.630330801
vn -0.197451279 4.12942143E-07 0.980312645
vn -0.779622793 2.63275382E-07 0.626249373
vn -0.754525006 -0.03947144 0.655083239
vn -0.99631846 0.085729599 2.5236011E-07
vn -0.999322653 0.0368006527 0
vn -0.330554456 -0.261441886 -0.906852722
vn -0 -1 -2.23231882E-06
vn -0 -1 8.57543E-06
vn -0 -1 0
vn 1.5220516E-07 -1 0
vn 1.5187463E-07 -1 6.22443622E-06
vn 1.52206326E-07 1 0
vn 1.51872982E-07 1 6.2248273E-06
vn -0 1 8.57568921E-06
vn -0 1 0
vn -0 1 -2.23212533E-06
vn 1.52535733E-07 -1 -6.19865159E-06
vn -0 -1 0
vn 1.5220516E-07 -1 0
vn -0 -1 -9.2028813E-06
vn -0 -1 -2.23231882E-06
vn -1.25857142E-07 -1 -1.22071124E-05
vn -0 -1 -9.11019015E-06
vn -0 -1 0
vn 1.45429652E-07 -1 -6.01326792E-06
vn 1.45426682E-07 -1 0
g BoosterPack_0
f 3/3/3 2/2/2 1/1/1
f 2/2/2 4/4/4 1/1/1
f 4/4/4 2/2/2 5/5/5
f 6/6/6 4/4/4 5/5/5
f 6/6/6 5/5/5 7/7/7
f 5/5/5 8/8/8 7/7/7
f 7/7/7 8/8/8 9/9/9
f 8/8/8 10/10/10 9/9/9
f 13/13/13 12/12/12 11/11/11
f 14/14/14 13/13/13 11/11/11
f 15/15/15 13/13/13 14/14/14
f 16/16/16 15/15/15 14/14/14
f 15/15/15 16/16/16 17/17/17
f 18/18/18 15/15/15 17/17/17
f 21/21/21 20/20/20 19/19/19
f 22/22/22 21/21/21 19/19/19
f 21/21/21 22/22/22 23/23/23
f 24/24/24 21/21/21 23/23/23
f 24/24/24 23/23/23 25/25/25
f 23/23/23 26/26/26 25/25/25
f 29/29/29 28/28/28 27/27/27
f 28/28/28 30/30/30 27/27/27
f 31/31/31 27/27/27 30/30/30
f 30/30/30 28/28/28 32/32/32
f 28/28/28 33/33/33 32/32/32
f 32/32/32 33/33/33 34/34/34
f 33/33/33 35/35/35 34/34/34
f 35/35/35 36/36/36 34/34/34
f 30/30/30 32/32/32 37/37/37
f 32/32/32 34/34/34 37/37/37
f 38/38/38 31/31/31 30/30/30
f 38/38/38 30/30/30 37/37/37
f 31/31/31 38/38/38 39/39/39
f 40/40/40 31/31/31 39/39/39
f 39/39/39 41/41/41 40/40/40
f 41/41/41 42/42/42 40/40/40
f 42/42/42 41/41/41 43/43/43
f 44/44/44 42/42/42 43/43/43
f 43/43/43 45/45/45 44/44/44
f 45/45/45 46/46/46 44/44/44
f 46/46/46 45/45/45 47/47/47
f 45/45/45 48/48/48 47/47/47
f 49/49/49 47/47/47 48/48/48
f 37/37/37 50/50/50 38/38/38
f 39/39/39 38/38/38 51/51/51
f 50/50/50 51/51/51 38/38/38
f 39/39/39 52/52/52 41/41/41
f 52/52/52 39/39/39 51/51/51
f 53/53/53 52/52/52 51/51/51
f 52/52/52 54/54/54 41/41/41
f 41/41/41 54/54/54 43/43/43
f 52/52/52 53/53/53 54/54/54
f 50/50/50 37/37/37 55/55/55
f 34/34/34 55/55/55 37/37/37
f 51/51/51 50/50/50 56/56/56
f 56/56/56 53/53/53 51/51/51
f 57/57/57 50/50/50 55/55/55
f 50/50/50 57/57/57 56/56/56
f 58/58/58 57/57/57 55/55/55
f 57/57/57 58/58/58 56/56/56
f 59/59/59 55/55/55 34/34/34
f 59/59/59 58/58/58 55/55/55
f 56/56/56 60/60/60 53/53/53
f 58/58/58 60/60/60 56/56/56
f 61/61/61 59/59/59 34/34/34
f 59/59/59 61/61/61 62/62/62
f 36/36/36 61/61/61 34/34/34
f 62/62/62 61/61/61 36/36/36
f 63/63/63 62/62/62 36/36/36
f 62/62/62 63/63/63 64/64/64
f 58/58/58 59/59/59 65/65/65
f 65/65/65 59/59/59 62/62/62
f 66/66/66 62/62/62 64/64/64
f 66/66/66 64/64/64 67/67/67
f 62/62/62 66/66/66 68/68/68
f 65/65/65 62/62/62 68/68/68
f 69/69/69 66/66/66 67/67/67
f 66/66/66 69/69/69 68/68/68
f 69/69/69 70/70/70 68/68/68
f 69/69/69 67/67/67 71/71/71
f 70/70/70 69/69/69 71/71/71
f 67/67/67 72/72/72 71/71/71
f 73/73/73 70/70/70 71/71/71
f 70/70/70 73/73/73 74/74/74
f 68/68/68 75/75/75 65/65/65
f 70/70/70 75/75/75 68/68/68
f 76/76/76 58/58/58 65/65/65
f 75/75/75 76/76/76 65/65/65
f 58/58/58 76/76/76 77/77/77
f 76/76/76 75/75/75 77/77/77
f 60/60/60 58/58/58 77/77/77
f 60/60/60 77/77/77 78/78/78
f 75/75/75 79/79/79 77/77/77
f 75/75/75 70/70/70 79/79/79
f 78/78/78 77/77/77 79/79/79
f 80/80/80 70/70/70 74/74/74
f 70/70/70 80/80/80 79/79/79
f 81/81/81 80/80/80 74/74/74
f 82/82/82 81/81/81 74/74/74
f 81/81/81 82/82/82 83/83/83
f 80/80/80 84/84/84 79/79/79
f 84/84/84 78/78/78 79/79/79
f 80/80/80 81/81/81 84/84/84
f 85/85/85 81/81/81 83/83/83
f 83/83/83 86/86/86 85/85/85
f 81/81/81 87/87/87 84/84/84
f 84/84/84 87/87/87 78/78/78
f 87/87/87 81/81/81 85/85/85
f 88/88/88 60/60/60 78/78/78
f 60/60/60 88/88/88 53/53/53
f 89/89/89 88/88/88 78/78/78
f 53/53/53 88/88/88 89/89/89
f 87/87/87 90/90/90 78/78/78
f 90/90/90 89/89/89 78/78/78
f 87/87/87 91/91/91 90/90/90
f 91/91/91 87/87/87 85/85/85
f 86/86/86 92/92/92 85/85/85
f 92/92/92 86/86/86 93/93/93
f 94/94/94 53/53/53 89/89/89
f 53/53/53 94/94/94 54/54/54
f 89/89/89 90/90/90 95/95/95
f 91/91/91 95/95/95 90/90/90
f 96/96/96 91/91/91 85/85/85
f 92/92/92 96/96/96 85/85/85
f 97/97/97 89/89/89 95/95/95
f 94/94/94 89/89/89 97/97/97
f 98/98/98 95/95/95 91/91/91
f 96/96/96 98/98/98 91/91/91
f 95/95/95 98/98/98 97/97/97
f 99/99/99 98/98/98 96/96/96
f 54/54/54 94/94/94 100/100/100
f 54/54/54 100/100/100 43/43/43
f 101/101/101 96/96/96 92/92/92
f 101/101/101 99/99/99 96/96/96
f 102/102/102 94/94/94 97/97/97
f 94/94/94 102/102/102 100/100/100
f 98/98/98 103/103/103 97/97/97
f 97/97/97 103/103/103 102/102/102
f 98/98/98 99/99/99 103/103/103
f 100/100/100 104/104/104 43/43/43
f 104/104/104 45/45/45 43/43/43
f 100/100/100 102/102/102 105/105/105
f 103/103/103 105/105/105 102/102/102
f 104/104/104 100/100/100 105/105/105
f 105/105/105 103/103/103 106/106/106
f 104/104/104 105/105/105 106/106/106
f 45/45/45 104/104/104 107/107/107
f 107/107/107 104/104/104 106/106/106
f 48/48/48 45/45/45 107/107/107
f 48/48/48 107/107/107 108/108/108
f 107/107/107 106/106/106 108/108/108
f 99/99/99 109/109/109 103/103/103
f 103/103/103 109/109/109 106/106/106
f 109/109/109 110/110/110 106/106/106
f 110/110/110 109/109/109 99/99/99
f 111/111/111 48/48/48 108/108/108
f 111/111/111 49/49/49 48/48/48
f 106/106/106 112/112/112 108/108/108
f 110/110/110 112/112/112 106/106/106
f 110/110/110 113/113/113 112/112/112
f 114/114/114 110/110/110 99/99/99
f 113/113/113 110/110/110 114/114/114
f 115/115/115 108/108/108 112/112/112
f 108/108/108 115/115/115 111/111/111
f 49/49/49 111/111/111 116/116/116
f 117/117/117 49/49/49 116/116/116
f 114/114/114 99/99/99 118/118/118
f 99/99/99 101/101/101 118/118/118
f 113/113/113 119/119/119 112/112/112
f 119/119/119 115/115/115 112/112/112
f 115/115/115 120/120/120 111/111/111
f 116/116/116 111/111/111 120/120/120
f 115/115/115 119/119/119 121/121/121
f 119/119/119 113/113/113 121/121/121
f 120/120/120 115/115/115 121/121/121
f 121/121/121 122/122/122 120/120/120
f 116/116/116 123/123/123 117/117/117
f 123/123/123 124/124/124 117/117/117
f 125/125/125 116/116/116 120/120/120
f 122/122/122 125/125/125 120/120/120
f 116/116/116 125/125/125 123/123/123
f 124/124/124 123/123/123 126/126/126
f 127/127/127 124/124/124 126/126/126
f 125/125/125 128/128/128 123/123/123
f 125/125/125 122/122/122 128/128/128
f 123/123/123 128/128/128 126/126/126
f 127/127/127 126/126/126 129/129/129
f 130/130/130 127/127/127 129/129/129
f 128/128/128 131/131/131 126/126/126
f 126/126/126 131/131/131 129/129/129
f 130/130/130 129/129/129 132/132/132
f 133/133/133 130/130/130 132/132/132
f 132/132/132 129/129/129 134/134/134
f 129/129/129 135/135/135 134/134/134
f 131/131/131 135/135/135 129/129/129
f 134/134/134 135/135/135 136/136/136
f 128/128/128 137/137/137 131/131/131
f 122/122/122 137/137/137 128/128/128
f 135/135/135 138/138/138 136/136/136
f 136/136/136 138/138/138 139/139/139
f 131/131/131 140/140/140 135/135/135
f 137/137/137 140/140/140 131/131/131
f 140/140/140 138/138/138 135/135/135
f 138/138/138 141/141/141 139/139/139
f 142/142/142 139/139/139 141/141/141
f 140/140/140 143/143/143 138/138/138
f 140/140/140 137/137/137 143/143/143
f 143/143/143 141/141/141 138/138/138
f 144/144/144 142/142/142 141/141/141
f 145/145/145 142/142/142 144/144/144
f 137/137/137 146/146/146 143/143/143
f 137/137/137 122/122/122 146/146/146
f 143/143/143 147/147/147 141/141/141
f 147/147/147 144/144/144 141/141/141
f 143/143/143 146/146/146 147/147/147
f 148/148/148 145/145/145 144/144/144
f 149/149/149 145/145/145 148/148/148
f 147/147/147 150/150/150 144/144/144
f 150/150/150 148/148/148 144/144/144
f 151/151/151 149/149/149 148/148/148
f 152/152/152 149/149/149 151/151/151
f 153/153/153 152/152/152 151/151/151
f 154/154/154 153/153/153 151/151/151
f 155/155/155 151/151/151 148/148/148
f 155/155/155 154/154/154 151/151/151
f 150/150/150 155/155/155 148/148/148
f 150/150/150 147/147/147 156/156/156
f 146/146/146 156/156/156 147/147/147
f 156/156/156 146/146/146 157/157/157
f 158/158/158 150/150/150 156/156/156
f 150/150/150 158/158/158 155/155/155
f 158/158/158 156/156/156 157/157/157
f 155/155/155 159/159/159 154/154/154
f 158/158/158 159/159/159 155/155/155
f 159/159/159 160/160/160 154/154/154
f 160/160/160 159/159/159 161/161/161
f 159/159/159 158/158/158 162/162/162
f 162/162/162 158/158/158 157/157/157
f 159/159/159 163/163/163 161/161/161
f 163/163/163 159/159/159 162/162/162
f 163/163/163 164/164/164 161/161/161
f 164/164/164 165/165/165 161/161/161
f 165/165/165 164/164/164 93/93/93
f 163/163/163 162/162/162 166/166/166
f 162/162/162 157/157/157 166/166/166
f 164/164/164 163/163/163 166/166/166
f 146/146/146 167/167/167 157/157/157
f 122/122/122 167/167/167 146/146/146
f 168/168/168 167/167/167 122/122/122
f 167/167/167 168/168/168 157/157/157
f 121/121/121 168/168/168 122/122/122
f 113/113/113 168/168/168 121/121/121
f 168/168/168 169/169/169 157/157/157
f 157/157/157 169/169/169 166/166/166
f 168/168/168 113/113/113 169/169/169
f 170/170/170 166/166/166 169/169/169
f 170/170/170 164/164/164 166/166/166
f 113/113/113 171/171/171 169/169/169
f 171/171/171 170/170/170 169/169/169
f 171/171/171 113/113/113 114/114/114
f 170/170/170 171/171/171 114/114/114
f 118/118/118 170/170/170 114/114/114
f 164/164/164 170/170/170 118/118/118
f 172/172/172 164/164/164 118/118/118
f 101/101/101 172/172/172 118/118/118
f 164/164/164 172/172/172 93/93/93
f 172/172/172 101/101/101 92/92/92
f 172/172/172 92/92/92 93/93/93
f 175/175/175 174/174/174 173/173/173
f 174/174/174 175/175/175 176/176/176
f 177/177/177 174/174/174 176/176/176
f 180/180/180 179/179/179 178/178/178
f 181/181/181 180/180/180 178/178/178
f 180/180/180 181/181/181 182/182/182
f 185/185/185 184/184/184 183/183/183
f 184/184/184 186/186/186 183/183/183
f 184/184/184 187/187/187 186/186/186
f 187/187/187 188/188/188 186/186/186
f 189/189/189 188/188/188 187/187/187
f 190/190/190 189/189/189 187/187/187
f 191/191/191 189/189/189 190/190/190
f 192/192/192 191/191/191 190/190/190
